# xmcd
#
# Track frame offsets:
#	150
#	17621
#	37963
#	53969
#	72789
#	90159
#	106716
#	121246
#	133654
#	140805
#	159806
#	178958
#	194516
#	212271
#	229034
#
# Disc length: 3239 seconds
#
# Revision: 0
# Processed by: cddbd v1.4PL0 Copyright (c) Steve Scherf et al.
# Submitted via: dBpowerAMP V4.0
#
DISCID=c00ca50f
DTITLE=Ted Egan - I-O-U
DYEAR=1900
DGENRE=
TTITLE0=I-O-U - 01 - Old Ned
TTITLE1=I-O-U - 02 - Leave Him In The Longyard
TTITLE2=I-O-U - 03 - Edna
TTITLE3=I-O-U - 04 - Down The River
TTITLE4=I-O-U - 05 - Keepers Of The Flame
TTITLE5=I-O-U - 06 - Goodbye Old Chap
TTITLE6=I-O-U - 07 - Two Little Boys
TTITLE7=I-O-U - 08 - Vale Rusty Reagan
TTITLE8=I-O-U - 09 - Rusty Reagan's Reel
TTITLE9=I-O-U - 10 - Packhorse Drover
TTITLE10=I-O-U - 11 - Tommy Dodd
TTITLE11=I-O-U - 12 - The Girls Of Meekatharra
TTITLE12=I-O-U - 13 - Drought
TTITLE13=I-O-U - 14 - The Wave Hill Track
TTITLE14=I-O-U - 15 - I-O-U
EXTD=Aussie
EXTT0=
EXTT1=
EXTT2=
EXTT3=
EXTT4=
EXTT5=
EXTT6=
EXTT7=
EXTT8=
EXTT9=
EXTT10=
EXTT11=
EXTT12=
EXTT13=
EXTT14=
PLAYORDER=
